<svg id="Camada_1" class="fill_chat_user" data-name="Camada 1" xmlns="http://www.w3.org/2000/svg" viewBox="0 0 435.87 501"><title>PLUGIN_CHAT</title><path d="M426.21,0H223.78a42.26,42.26,0,0,0-42.2,42.22V152.94a42.26,42.26,0,0,0,42.2,42.22H244.7v32.63A17.16,17.16,0,0,0,274,239.91l44.72-44.75H426.21a42.26,42.26,0,0,0,42.21-42.22V42.22A42.26,42.26,0,0,0,426.21,0Zm0,0" transform="translate(-32.54)"/><path d="M160.7,368.82a82.7,82.7,0,1,0-25.3,0c-29.22,2.54-54.83,13.88-73.1,32.57-20.22,20.71-30.5,49.36-29.72,82.85A17.16,17.16,0,0,0,49.74,501H246.35a17.16,17.16,0,0,0,17.16-16.76c.77-33.5-9.5-62.15-29.73-82.85-18.26-18.7-43.87-30-73.07-32.57Zm0,0" transform="translate(-32.54)"/></svg>